# xmcd
#
# Track frame offsets:
#	150
#	19027
#	42373
#	59897
#	83434
#	97110
#	120150
#	136428
#	163148
#	177774
#	196975
#	212021
#
# Disc length: 3130 seconds
#
# Revision: 2
# Processed by: cddbd v1.5PL3 Copyright (c) Steve Scherf et al.
# Submitted via: EasyCDDAExtractor 7.0.0.1
#
DISCID=a10c380c
DTITLE=Various Artist - Get U Sum
DYEAR=2003
DGENRE=Blues
TTITLE0=Sugar House - Second line party
TTITLE1=Unknown Artist - Just to be blue
TTITLE2=Unknown Artist - Get U Sum
TTITLE3=Unknown Artist - Long Day
TTITLE4=Unknown Artist - Remember
TTITLE5=Unknown Artist - I ust Call It Love
TTITLE6=Unknown Artist - Groovy's Grill'
TTITLE7=Unknown Artist - Just Not Know
TTITLE8=Unknown Artist - Get A Life
TTITLE9=Unknown Artist - Keep On Trying
TTITLE10=Unknown Artist - Tr3eat Me Like A Man
TTITLE11=Sugar Hous4e - Back To Me
EXTD=
EXTT0=
EXTT1=
EXTT2=
EXTT3=
EXTT4=
EXTT5=
EXTT6=
EXTT7=
EXTT8=
EXTT9=
EXTT10=
EXTT11=
PLAYORDER=
